<svg id="Vrstva_1" data-name="Vrstva 1" xmlns="http://www.w3.org/2000/svg" xmlns:xlink="http://www.w3.org/1999/xlink" viewBox="0 0 4096 4096">
    <defs>
        <style>.cls-1{fill:url(#Nepojmenovaný_přechod_5);}</style>
        <linearGradient id="Nepojmenovaný_přechod_5" x1="1312.02" y1="2048.4" x2="2783.87" y2="2048.4" gradientTransform="translate(0 -0.12)" gradientUnits="userSpaceOnUse">
            <stop offset="0" stop-color="#d4145a" />
            <stop offset="0.03" stop-color="#ce155c" />
            <stop offset="0.28" stop-color="#951f6f" />
            <stop offset="0.51" stop-color="#69277e" />
            <stop offset="0.71" stop-color="#492c89" />
            <stop offset="0.88" stop-color="#353090" />
            <stop offset="1" stop-color="#2e3192" />
        </linearGradient>
    </defs>
    <title>logoColor</title>
    <path class="cls-1" d="M2187.21,986.39c0,98.92-46.21,186.9-118.23,243.85-72-56.95-118.23-144.93-118.23-243.85S1997,799.48,2069,742.54C2141,799.48,2187.21,887.47,2187.21,986.39Z" />
    <path class="cls-1" d="M2187.21,986.39c0,98.92-46.21,186.9-118.23,243.85-72-56.95-118.23-144.93-118.23-243.85S1997,799.48,2069,742.54C2141,799.48,2187.21,887.47,2187.21,986.39Z" />
    <path class="cls-1" d="M2038.73,1566.6C1832.91,1493.49,1677,1315,1636.16,1095.85,1842,1169,1997.94,1347.48,2038.73,1566.6Z" />
    <path class="cls-1" d="M2187.21,986.39c0,98.92-46.21,186.9-118.23,243.85-72-56.95-118.23-144.93-118.23-243.85S1997,799.48,2069,742.54C2141,799.48,2187.21,887.47,2187.21,986.39Z" />
    <path class="cls-1" d="M2038.73,1566.6C1832.91,1493.49,1677,1315,1636.16,1095.85,1842,1169,1997.94,1347.48,2038.73,1566.6Z" />
    <path class="cls-1" d="M2038.73,1921.28c-205.82-73.11-361.78-251.63-402.57-470.75C1842,1523.64,1997.94,1702.17,2038.73,1921.28Z" />
    <path class="cls-1" d="M2038.73,2256.27c-205.82-73.11-361.78-251.63-402.57-470.75C1842,1858.62,1997.94,2037.15,2038.73,2256.27Z" />
    <path class="cls-1" d="M2038.73,2611c-205.82-73.11-361.78-251.63-402.57-470.75C1842,2213.31,1997.94,2391.84,2038.73,2611Z" />
    <path class="cls-1" d="M2079.52,1566.6c205.82-73.11,361.78-251.63,402.57-470.75C2276.27,1169,2120.31,1347.48,2079.52,1566.6Z" />
    <path class="cls-1" d="M2079.52,1566.6c205.82-73.11,361.78-251.63,402.57-470.75C2276.27,1169,2120.31,1347.48,2079.52,1566.6Z" />
    <path class="cls-1" d="M2079.52,1921.28c205.82-73.11,361.78-251.63,402.57-470.75C2276.27,1523.64,2120.31,1702.17,2079.52,1921.28Z" />
    <path class="cls-1" d="M2079.52,2256.27c205.82-73.11,361.78-251.63,402.57-470.75C2276.27,1858.62,2120.31,2037.15,2079.52,2256.27Z" />
    <path class="cls-1" d="M2079.52,2611c205.82-73.11,361.78-251.63,402.57-470.75C2276.27,2213.31,2120.31,2391.84,2079.52,2611Z" />
    <path class="cls-1" d="M2783.87,2835c-149.56,0-297.74-.1-424.34-.1-85.42,146.8-196.85,338.33-302,519.13-12.41-20.79-26.31-43.84-41.18-68.77-5.91-10-12-20.1-18.33-30.54,13.5-20.39,27.39-41.28,41.38-62.37,5.62-8.47,11.33-16.95,16.95-25.52,97.24-146.31,199.51-300.11,267.79-402.77C2440.22,2782,2613.42,2808.69,2783.87,2835Z" />
    <path class="cls-1" d="M1998,3254.71c-4.93,7.29-9.66,14.48-14.38,21.58-125.82-161.09-260-332.72-363.85-465.53-103.06,7.09-218.53,15-307.79,21.18,107.88-28.08,257.84-67,374.29-97.24C1767,2869.19,1900.3,3091.66,1998,3254.71Z" />
</svg>